<svg width="288" height="127" viewBox="0 0 288 127" fill="none" xmlns="http://www.w3.org/2000/svg">
<rect width="288" height="127" fill="white"/>
<path d="M131.5 62.5C131.5 73.7608 125.232 83.999 115.011 91.4407C104.79 98.8821 90.6458 103.5 75 103.5C59.3542 103.5 45.2099 98.8821 34.9892 91.4407C24.7681 83.999 18.5 73.7608 18.5 62.5C18.5 51.2392 24.7681 41.001 34.9892 33.5593C45.2099 26.1179 59.3542 21.5 75 21.5C90.6458 21.5 104.79 26.1179 115.011 33.5593C125.232 41.001 131.5 51.2392 131.5 62.5Z" fill="white" stroke="black"/>
<path d="M49.9432 53.5455V71H47.8295V55.7614H47.7273L43.4659 58.5909V56.4432L47.8295 53.5455H49.9432ZM56.9659 68.6136L56.8295 69.5341C56.733 70.1818 56.5852 70.875 56.3864 71.6136C56.1932 72.3523 55.9915 73.0483 55.7812 73.7017C55.571 74.3551 55.3977 74.875 55.2614 75.2614H53.7273C53.8011 74.8977 53.8977 74.4176 54.017 73.821C54.1364 73.2244 54.2557 72.5568 54.375 71.8182C54.5 71.0852 54.6023 70.3352 54.6818 69.5682L54.7841 68.6136H56.9659ZM67.4084 71V69.4659L73.1697 63.1591C73.8459 62.4205 74.4027 61.7784 74.8402 61.233C75.2777 60.6818 75.6016 60.1648 75.8118 59.6818C76.0277 59.1932 76.1357 58.6818 76.1357 58.1477C76.1357 57.5341 75.9879 57.0028 75.6925 56.554C75.4027 56.1051 75.005 55.7585 74.4993 55.5142C73.9936 55.2699 73.4254 55.1477 72.7947 55.1477C72.1243 55.1477 71.5391 55.2869 71.0391 55.5653C70.5447 55.8381 70.1612 56.2216 69.8885 56.7159C69.6214 57.2102 69.4879 57.7898 69.4879 58.4545H67.4766C67.4766 57.4318 67.7124 56.5341 68.1839 55.7614C68.6555 54.9886 69.2976 54.3864 70.1101 53.9545C70.9283 53.5227 71.8459 53.3068 72.8629 53.3068C73.8857 53.3068 74.7919 53.5227 75.5817 53.9545C76.3714 54.3864 76.9908 54.9687 77.4396 55.7017C77.8885 56.4347 78.1129 57.25 78.1129 58.1477C78.1129 58.7898 77.9964 59.4176 77.7635 60.0312C77.5362 60.6392 77.1385 61.3182 76.5703 62.0682C76.0078 62.8125 75.2266 63.7216 74.2266 64.7955L70.3061 68.9886V69.125H78.4197V71H67.4084ZM84.9737 68.6136L84.8374 69.5341C84.7408 70.1818 84.593 70.875 84.3942 71.6136C84.201 72.3523 83.9993 73.0483 83.7891 73.7017C83.5788 74.3551 83.4055 74.875 83.2692 75.2614H81.7351C81.8089 74.8977 81.9055 74.4176 82.0249 73.821C82.1442 73.2244 82.2635 72.5568 82.3828 71.8182C82.5078 71.0852 82.6101 70.3352 82.6896 69.5682L82.7919 68.6136H84.9737ZM101.109 71.2386C99.8253 71.2386 98.7315 70.8892 97.8281 70.1903C96.9247 69.4858 96.2344 68.4659 95.7571 67.1307C95.2798 65.7898 95.0412 64.1705 95.0412 62.2727C95.0412 60.3864 95.2798 58.7756 95.7571 57.4403C96.2401 56.0994 96.9332 55.0767 97.8366 54.3722C98.7457 53.6619 99.8366 53.3068 101.109 53.3068C102.382 53.3068 103.47 53.6619 104.374 54.3722C105.283 55.0767 105.976 56.0994 106.453 57.4403C106.936 58.7756 107.178 60.3864 107.178 62.2727C107.178 64.1705 106.939 65.7898 106.462 67.1307C105.984 68.4659 105.294 69.4858 104.391 70.1903C103.487 70.8892 102.393 71.2386 101.109 71.2386ZM101.109 69.3636C102.382 69.3636 103.371 68.75 104.075 67.5227C104.78 66.2955 105.132 64.5455 105.132 62.2727C105.132 60.7614 104.97 59.4744 104.646 58.4119C104.328 57.3494 103.868 56.5398 103.266 55.983C102.669 55.4261 101.95 55.1477 101.109 55.1477C99.848 55.1477 98.8622 55.7699 98.152 57.0142C97.4418 58.2528 97.0866 60.0057 97.0866 62.2727C97.0866 63.7841 97.2457 65.0682 97.5639 66.125C97.8821 67.1818 98.3395 67.9858 98.9361 68.5369C99.5384 69.0881 100.263 69.3636 101.109 69.3636Z" fill="black"/>
<circle cx="232" cy="62" r="24.5" fill="white" stroke="black"/>
<path d="M231.705 71.2386C230.58 71.2386 229.577 71.0455 228.696 70.6591C227.821 70.2727 227.125 69.7358 226.608 69.0483C226.097 68.3551 225.818 67.5511 225.773 66.6364H227.92C227.966 67.1989 228.159 67.6847 228.5 68.0938C228.841 68.4972 229.287 68.8097 229.838 69.0312C230.389 69.2528 231 69.3636 231.67 69.3636C232.42 69.3636 233.085 69.233 233.665 68.9716C234.244 68.7102 234.699 68.3466 235.028 67.8807C235.358 67.4148 235.523 66.875 235.523 66.2614C235.523 65.6193 235.364 65.054 235.045 64.5653C234.727 64.071 234.261 63.6847 233.648 63.4062C233.034 63.1278 232.284 62.9886 231.398 62.9886H230V61.1136H231.398C232.091 61.1136 232.699 60.9886 233.222 60.7386C233.75 60.4886 234.162 60.1364 234.457 59.6818C234.759 59.2273 234.909 58.6932 234.909 58.0795C234.909 57.4886 234.778 56.9744 234.517 56.5369C234.256 56.0994 233.886 55.7585 233.409 55.5142C232.938 55.2699 232.381 55.1477 231.739 55.1477C231.136 55.1477 230.568 55.2585 230.034 55.4801C229.506 55.696 229.074 56.0114 228.739 56.4261C228.403 56.8352 228.222 57.3295 228.193 57.9091H226.148C226.182 56.9943 226.457 56.1932 226.974 55.5057C227.491 54.8125 228.168 54.2727 229.003 53.8864C229.844 53.5 230.767 53.3068 231.773 53.3068C232.852 53.3068 233.778 53.5256 234.551 53.9631C235.324 54.3949 235.918 54.9659 236.332 55.6761C236.747 56.3864 236.955 57.1534 236.955 57.9773C236.955 58.9602 236.696 59.7983 236.179 60.4915C235.668 61.1847 234.972 61.6648 234.091 61.9318V62.0682C235.193 62.25 236.054 62.7187 236.673 63.4744C237.293 64.2244 237.602 65.1534 237.602 66.2614C237.602 67.2102 237.344 68.0625 236.827 68.8182C236.315 69.5682 235.616 70.1591 234.73 70.5909C233.844 71.0227 232.835 71.2386 231.705 71.2386Z" fill="black"/>
<path d="M207.707 62.7071C208.098 62.3166 208.098 61.6834 207.707 61.2929L201.343 54.9289C200.953 54.5384 200.319 54.5384 199.929 54.9289C199.538 55.3195 199.538 55.9526 199.929 56.3431L205.586 62L199.929 67.6569C199.538 68.0474 199.538 68.6805 199.929 69.0711C200.319 69.4616 200.953 69.4616 201.343 69.0711L207.707 62.7071ZM132 63L207 63V61L132 61V63Z" fill="black"/>
</svg>
