<svg width="344" height="349" viewBox="0 0 344 349" fill="none" xmlns="http://www.w3.org/2000/svg">
<rect width="344" height="349" fill="white"/>
<rect x="48.5" y="49.5042" width="249" height="249" fill="white" stroke="black"/>
<line x1="47" y1="98.5042" x2="297" y2="98.5042" stroke="black"/>
<line x1="47" y1="148.504" x2="297" y2="148.504" stroke="black"/>
<line x1="47" y1="198.504" x2="297" y2="198.504" stroke="black"/>
<line x1="47" y1="248.504" x2="297" y2="248.504" stroke="black"/>
<line x1="97.5" y1="299.008" x2="97.5" y2="49" stroke="black"/>
<line x1="147.5" y1="299.008" x2="147.5" y2="49" stroke="black"/>
<line x1="197.5" y1="299.008" x2="197.5" y2="49" stroke="black"/>
<line x1="247.5" y1="299.008" x2="247.5" y2="49" stroke="black"/>
<rect x="148" y="149.004" width="100" height="100" fill="#EB5757"/>
<rect opacity="0.9" x="48" y="49.0042" width="100" height="200" fill="#27AE60"/>
<rect opacity="0.9" x="48" y="49.0042" width="200" height="100" fill="#56CCF2"/>
<path d="M46.75 47.1193C46.108 47.1193 45.5611 46.9446 45.1094 46.5952C44.6577 46.2429 44.3125 45.733 44.0739 45.0653C43.8352 44.3949 43.7159 43.5852 43.7159 42.6364C43.7159 41.6932 43.8352 40.8878 44.0739 40.2202C44.3153 39.5497 44.6619 39.0384 45.1136 38.6861C45.5682 38.331 46.1136 38.1534 46.75 38.1534C47.3864 38.1534 47.9304 38.331 48.3821 38.6861C48.8366 39.0384 49.1832 39.5497 49.4219 40.2202C49.6634 40.8878 49.7841 41.6932 49.7841 42.6364C49.7841 43.5852 49.6648 44.3949 49.4261 45.0653C49.1875 45.733 48.8423 46.2429 48.3906 46.5952C47.9389 46.9446 47.392 47.1193 46.75 47.1193ZM46.75 46.1818C47.3864 46.1818 47.8807 45.875 48.233 45.2614C48.5852 44.6477 48.7614 43.7727 48.7614 42.6364C48.7614 41.8807 48.6804 41.2372 48.5185 40.706C48.3594 40.1747 48.1293 39.7699 47.8281 39.4915C47.5298 39.2131 47.1705 39.0739 46.75 39.0739C46.1193 39.0739 45.6264 39.3849 45.2713 40.0071C44.9162 40.6264 44.7386 41.5028 44.7386 42.6364C44.7386 43.392 44.8182 44.0341 44.9773 44.5625C45.1364 45.0909 45.3651 45.4929 45.6634 45.7685C45.9645 46.044 46.3267 46.1818 46.75 46.1818Z" fill="black"/>
<path d="M144.903 44V43.233L147.784 40.0795C148.122 39.7102 148.401 39.3892 148.619 39.1165C148.838 38.8409 149 38.5824 149.105 38.3409C149.213 38.0966 149.267 37.8409 149.267 37.5739C149.267 37.267 149.193 37.0014 149.045 36.777C148.901 36.5526 148.702 36.3793 148.449 36.2571C148.196 36.1349 147.912 36.0739 147.597 36.0739C147.261 36.0739 146.969 36.1435 146.719 36.2827C146.472 36.419 146.28 36.6108 146.143 36.858C146.01 37.1051 145.943 37.3949 145.943 37.7273H144.938C144.938 37.2159 145.055 36.767 145.291 36.3807C145.527 35.9943 145.848 35.6932 146.254 35.4773C146.663 35.2614 147.122 35.1534 147.631 35.1534C148.142 35.1534 148.595 35.2614 148.99 35.4773C149.385 35.6932 149.695 35.9844 149.919 36.3509C150.143 36.7173 150.256 37.125 150.256 37.5739C150.256 37.8949 150.197 38.2088 150.081 38.5156C149.967 38.8196 149.768 39.1591 149.484 39.5341C149.203 39.9062 148.812 40.3608 148.312 40.8977L146.352 42.9943V43.0625H150.409V44H144.903Z" fill="black"/>
<path d="M240.699 42.2102V41.3409L244.534 35.2727H245.165V36.6193H244.739L241.841 41.2045V41.2727H247.006V42.2102H240.699ZM244.807 44V41.946V41.5412V35.2727H245.812V44H244.807Z" fill="black"/>
<path d="M24.9034 155V154.233L27.7841 151.08C28.1222 150.71 28.4006 150.389 28.6193 150.116C28.8381 149.841 29 149.582 29.1051 149.341C29.2131 149.097 29.267 148.841 29.267 148.574C29.267 148.267 29.1932 148.001 29.0455 147.777C28.9006 147.553 28.7017 147.379 28.4489 147.257C28.196 147.135 27.9119 147.074 27.5966 147.074C27.2614 147.074 26.9688 147.143 26.7188 147.283C26.4716 147.419 26.2798 147.611 26.1435 147.858C26.0099 148.105 25.9432 148.395 25.9432 148.727H24.9375C24.9375 148.216 25.0554 147.767 25.2912 147.381C25.527 146.994 25.848 146.693 26.2543 146.477C26.6634 146.261 27.1222 146.153 27.6307 146.153C28.142 146.153 28.5952 146.261 28.9901 146.477C29.3849 146.693 29.6946 146.984 29.919 147.351C30.1435 147.717 30.2557 148.125 30.2557 148.574C30.2557 148.895 30.1974 149.209 30.081 149.516C29.9673 149.82 29.7685 150.159 29.4844 150.534C29.2031 150.906 28.8125 151.361 28.3125 151.898L26.3523 153.994V154.062H30.4091V155H24.9034Z" fill="black"/>
<path d="M22.6989 254.21V253.341L26.5341 247.273H27.1648V248.619H26.7386L23.8409 253.205V253.273H29.0057V254.21H22.6989ZM26.8068 256V253.946V253.541V247.273H27.8125V256H26.8068Z" fill="black"/>
</svg>
