<svg width="673" height="298" viewBox="0 0 673 298" fill="none" xmlns="http://www.w3.org/2000/svg">
<rect width="673" height="298" fill="white"/>
<circle cx="76.5" cy="99.5" r="19.5" fill="white" stroke="black" stroke-width="2"/>
<circle cx="117.5" cy="219.5" r="19.5" fill="white" stroke="black" stroke-width="2"/>
<circle cx="249.5" cy="219.5" r="19.5" fill="white" stroke="black" stroke-width="2"/>
<circle cx="208.5" cy="99.5" r="19.5" fill="white" stroke="black" stroke-width="2"/>
<circle cx="340.5" cy="99.5" r="19.5" fill="white" stroke="black" stroke-width="2"/>
<path d="M94.2929 98.2929C93.9024 98.6834 93.9024 99.3166 94.2929 99.7071L100.657 106.071C101.047 106.462 101.681 106.462 102.071 106.071C102.462 105.681 102.462 105.047 102.071 104.657L96.4142 99L102.071 93.3431C102.462 92.9526 102.462 92.3195 102.071 91.9289C101.681 91.5384 101.047 91.5384 100.657 91.9289L94.2929 98.2929ZM188.707 99.7071C189.098 99.3166 189.098 98.6834 188.707 98.2929L182.343 91.9289C181.953 91.5384 181.319 91.5384 180.929 91.9289C180.538 92.3195 180.538 92.9526 180.929 93.3431L186.586 99L180.929 104.657C180.538 105.047 180.538 105.681 180.929 106.071C181.319 106.462 181.953 106.462 182.343 106.071L188.707 99.7071ZM95 100H188V98H95V100Z" fill="black"/>
<path d="M228.293 98.2929C227.902 98.6834 227.902 99.3166 228.293 99.7071L234.657 106.071C235.047 106.462 235.681 106.462 236.071 106.071C236.462 105.681 236.462 105.047 236.071 104.657L230.414 99L236.071 93.3431C236.462 92.9526 236.462 92.3195 236.071 91.9289C235.681 91.5384 235.047 91.5384 234.657 91.9289L228.293 98.2929ZM320.707 99.7071C321.098 99.3166 321.098 98.6834 320.707 98.2929L314.343 91.9289C313.953 91.5384 313.319 91.5384 312.929 91.9289C312.538 92.3195 312.538 92.9526 312.929 93.3431L318.586 99L312.929 104.657C312.538 105.047 312.538 105.681 312.929 106.071C313.319 106.462 313.953 106.462 314.343 106.071L320.707 99.7071ZM229 100H320V98H229V100Z" fill="black"/>
<path d="M137.293 218.293C136.902 218.683 136.902 219.317 137.293 219.707L143.657 226.071C144.047 226.462 144.681 226.462 145.071 226.071C145.462 225.681 145.462 225.047 145.071 224.657L139.414 219L145.071 213.343C145.462 212.953 145.462 212.319 145.071 211.929C144.681 211.538 144.047 211.538 143.657 211.929L137.293 218.293ZM229.707 219.707C230.098 219.317 230.098 218.683 229.707 218.293L223.343 211.929C222.953 211.538 222.319 211.538 221.929 211.929C221.538 212.319 221.538 212.953 221.929 213.343L227.586 219L221.929 224.657C221.538 225.047 221.538 225.681 221.929 226.071C222.319 226.462 222.953 226.462 223.343 226.071L229.707 219.707ZM138 220H229V218H138V220Z" fill="black"/>
<path d="M74.7955 105.205C74.2424 105.205 73.7405 105.1 73.2898 104.892C72.839 104.68 72.4811 104.375 72.2159 103.977C71.9508 103.576 71.8182 103.091 71.8182 102.523C71.8182 102.023 71.9167 101.617 72.1136 101.307C72.3106 100.992 72.5739 100.746 72.9034 100.568C73.233 100.39 73.5966 100.258 73.9943 100.17C74.3958 100.08 74.7992 100.008 75.2045 99.9545C75.7348 99.8864 76.1648 99.8352 76.4943 99.8011C76.8277 99.7633 77.0701 99.7008 77.2216 99.6136C77.3769 99.5265 77.4545 99.375 77.4545 99.1591V99.1136C77.4545 98.553 77.3011 98.1174 76.9943 97.8068C76.6913 97.4962 76.2311 97.3409 75.6136 97.3409C74.9735 97.3409 74.4716 97.4811 74.108 97.7614C73.7443 98.0417 73.4886 98.3409 73.3409 98.6591L72.0682 98.2045C72.2955 97.6742 72.5985 97.2614 72.9773 96.9659C73.3598 96.6667 73.7765 96.4583 74.2273 96.3409C74.6818 96.2197 75.1288 96.1591 75.5682 96.1591C75.8485 96.1591 76.1705 96.1932 76.5341 96.2614C76.9015 96.3258 77.2557 96.4602 77.5966 96.6648C77.9413 96.8693 78.2273 97.178 78.4545 97.5909C78.6818 98.0038 78.7955 98.5568 78.7955 99.25V105H77.4545V103.818H77.3864C77.2955 104.008 77.1439 104.21 76.9318 104.426C76.7197 104.642 76.4375 104.826 76.0852 104.977C75.733 105.129 75.303 105.205 74.7955 105.205ZM75 104C75.5303 104 75.9773 103.896 76.3409 103.688C76.7083 103.479 76.9848 103.21 77.1705 102.881C77.3598 102.551 77.4545 102.205 77.4545 101.841V100.614C77.3977 100.682 77.2727 100.744 77.0795 100.801C76.8902 100.854 76.6705 100.902 76.4205 100.943C76.1742 100.981 75.9337 101.015 75.6989 101.045C75.4678 101.072 75.2803 101.095 75.1364 101.114C74.7879 101.159 74.4621 101.233 74.1591 101.335C73.8598 101.434 73.6174 101.583 73.4318 101.784C73.25 101.981 73.1591 102.25 73.1591 102.591C73.1591 103.057 73.3314 103.409 73.6761 103.648C74.0246 103.883 74.4659 104 75 104Z" fill="black"/>
<path d="M109.409 225V213.364H110.75V217.659H110.864C110.962 217.508 111.098 217.314 111.273 217.08C111.451 216.841 111.705 216.629 112.034 216.443C112.367 216.254 112.818 216.159 113.386 216.159C114.121 216.159 114.769 216.343 115.33 216.71C115.89 217.078 116.328 217.598 116.642 218.273C116.956 218.947 117.114 219.742 117.114 220.659C117.114 221.583 116.956 222.384 116.642 223.062C116.328 223.737 115.892 224.259 115.335 224.631C114.778 224.998 114.136 225.182 113.409 225.182C112.848 225.182 112.4 225.089 112.062 224.903C111.725 224.714 111.466 224.5 111.284 224.261C111.102 224.019 110.962 223.818 110.864 223.659H110.705V225H109.409ZM110.727 220.636C110.727 221.295 110.824 221.877 111.017 222.381C111.21 222.881 111.492 223.273 111.864 223.557C112.235 223.837 112.689 223.977 113.227 223.977C113.788 223.977 114.256 223.83 114.631 223.534C115.009 223.235 115.294 222.833 115.483 222.33C115.676 221.822 115.773 221.258 115.773 220.636C115.773 220.023 115.678 219.47 115.489 218.977C115.303 218.481 115.021 218.089 114.642 217.801C114.267 217.509 113.795 217.364 113.227 217.364C112.682 217.364 112.223 217.502 111.852 217.778C111.481 218.051 111.201 218.434 111.011 218.926C110.822 219.415 110.727 219.985 110.727 220.636ZM122.71 225.182C121.892 225.182 121.188 224.989 120.597 224.602C120.006 224.216 119.551 223.684 119.233 223.006C118.915 222.328 118.756 221.553 118.756 220.682C118.756 219.795 118.919 219.013 119.244 218.335C119.574 217.653 120.032 217.121 120.619 216.739C121.21 216.352 121.9 216.159 122.688 216.159C123.301 216.159 123.854 216.273 124.347 216.5C124.839 216.727 125.242 217.045 125.557 217.455C125.871 217.864 126.066 218.341 126.142 218.886H124.801C124.699 218.489 124.472 218.136 124.119 217.83C123.771 217.519 123.301 217.364 122.71 217.364C122.188 217.364 121.729 217.5 121.335 217.773C120.945 218.042 120.64 218.422 120.42 218.915C120.205 219.403 120.097 219.977 120.097 220.636C120.097 221.311 120.203 221.898 120.415 222.398C120.631 222.898 120.934 223.286 121.324 223.562C121.718 223.839 122.18 223.977 122.71 223.977C123.059 223.977 123.375 223.917 123.659 223.795C123.943 223.674 124.184 223.5 124.381 223.273C124.578 223.045 124.718 222.773 124.801 222.455H126.142C126.066 222.97 125.879 223.434 125.58 223.847C125.284 224.256 124.892 224.581 124.403 224.824C123.919 225.062 123.354 225.182 122.71 225.182Z" fill="black"/>
<path d="M244.773 225.182C243.955 225.182 243.25 224.989 242.659 224.602C242.068 224.216 241.614 223.684 241.295 223.006C240.977 222.328 240.818 221.553 240.818 220.682C240.818 219.795 240.981 219.013 241.307 218.335C241.636 217.653 242.095 217.121 242.682 216.739C243.273 216.352 243.962 216.159 244.75 216.159C245.364 216.159 245.917 216.273 246.409 216.5C246.902 216.727 247.305 217.045 247.619 217.455C247.934 217.864 248.129 218.341 248.205 218.886H246.864C246.761 218.489 246.534 218.136 246.182 217.83C245.833 217.519 245.364 217.364 244.773 217.364C244.25 217.364 243.792 217.5 243.398 217.773C243.008 218.042 242.703 218.422 242.483 218.915C242.267 219.403 242.159 219.977 242.159 220.636C242.159 221.311 242.265 221.898 242.477 222.398C242.693 222.898 242.996 223.286 243.386 223.562C243.78 223.839 244.242 223.977 244.773 223.977C245.121 223.977 245.438 223.917 245.722 223.795C246.006 223.674 246.246 223.5 246.443 223.273C246.64 223.045 246.78 222.773 246.864 222.455H248.205C248.129 222.97 247.941 223.434 247.642 223.847C247.347 224.256 246.955 224.581 246.466 224.824C245.981 225.062 245.417 225.182 244.773 225.182ZM253.46 225.182C252.733 225.182 252.091 224.998 251.534 224.631C250.977 224.259 250.542 223.737 250.227 223.062C249.913 222.384 249.756 221.583 249.756 220.659C249.756 219.742 249.913 218.947 250.227 218.273C250.542 217.598 250.979 217.078 251.54 216.71C252.1 216.343 252.748 216.159 253.483 216.159C254.051 216.159 254.5 216.254 254.83 216.443C255.163 216.629 255.417 216.841 255.591 217.08C255.769 217.314 255.907 217.508 256.006 217.659H256.119V213.364H257.46V225H256.165V223.659H256.006C255.907 223.818 255.767 224.019 255.585 224.261C255.403 224.5 255.144 224.714 254.807 224.903C254.47 225.089 254.021 225.182 253.46 225.182ZM253.642 223.977C254.18 223.977 254.634 223.837 255.006 223.557C255.377 223.273 255.659 222.881 255.852 222.381C256.045 221.877 256.142 221.295 256.142 220.636C256.142 219.985 256.047 219.415 255.858 218.926C255.669 218.434 255.388 218.051 255.017 217.778C254.646 217.502 254.188 217.364 253.642 217.364C253.074 217.364 252.6 217.509 252.222 217.801C251.847 218.089 251.564 218.481 251.375 218.977C251.189 219.47 251.097 220.023 251.097 220.636C251.097 221.258 251.191 221.822 251.381 222.33C251.574 222.833 251.858 223.235 252.233 223.534C252.612 223.83 253.081 223.977 253.642 223.977Z" fill="black"/>
<path d="M204.409 105V93.3636H205.75V97.6591H205.864C205.962 97.5076 206.098 97.3144 206.273 97.0795C206.451 96.8409 206.705 96.6288 207.034 96.4432C207.367 96.2538 207.818 96.1591 208.386 96.1591C209.121 96.1591 209.769 96.3428 210.33 96.7102C210.89 97.0777 211.328 97.5985 211.642 98.2727C211.956 98.947 212.114 99.7424 212.114 100.659C212.114 101.583 211.956 102.384 211.642 103.062C211.328 103.737 210.892 104.259 210.335 104.631C209.778 104.998 209.136 105.182 208.409 105.182C207.848 105.182 207.4 105.089 207.062 104.903C206.725 104.714 206.466 104.5 206.284 104.261C206.102 104.019 205.962 103.818 205.864 103.659H205.705V105H204.409ZM205.727 100.636C205.727 101.295 205.824 101.877 206.017 102.381C206.21 102.881 206.492 103.273 206.864 103.557C207.235 103.837 207.689 103.977 208.227 103.977C208.788 103.977 209.256 103.83 209.631 103.534C210.009 103.235 210.294 102.833 210.483 102.33C210.676 101.822 210.773 101.258 210.773 100.636C210.773 100.023 210.678 99.4697 210.489 98.9773C210.303 98.4811 210.021 98.089 209.642 97.8011C209.267 97.5095 208.795 97.3636 208.227 97.3636C207.682 97.3636 207.223 97.5019 206.852 97.7784C206.481 98.0511 206.201 98.4337 206.011 98.9261C205.822 99.4148 205.727 99.9848 205.727 100.636Z" fill="black"/>
<path d="M339.773 105.182C338.955 105.182 338.25 104.989 337.659 104.602C337.068 104.216 336.614 103.684 336.295 103.006C335.977 102.328 335.818 101.553 335.818 100.682C335.818 99.7955 335.981 99.0133 336.307 98.3352C336.636 97.6534 337.095 97.1212 337.682 96.7386C338.273 96.3523 338.962 96.1591 339.75 96.1591C340.364 96.1591 340.917 96.2727 341.409 96.5C341.902 96.7273 342.305 97.0455 342.619 97.4545C342.934 97.8636 343.129 98.3409 343.205 98.8864H341.864C341.761 98.4886 341.534 98.1364 341.182 97.8295C340.833 97.5189 340.364 97.3636 339.773 97.3636C339.25 97.3636 338.792 97.5 338.398 97.7727C338.008 98.0417 337.703 98.4223 337.483 98.9148C337.267 99.4034 337.159 99.9773 337.159 100.636C337.159 101.311 337.265 101.898 337.477 102.398C337.693 102.898 337.996 103.286 338.386 103.562C338.78 103.839 339.242 103.977 339.773 103.977C340.121 103.977 340.438 103.917 340.722 103.795C341.006 103.674 341.246 103.5 341.443 103.273C341.64 103.045 341.78 102.773 341.864 102.455H343.205C343.129 102.97 342.941 103.434 342.642 103.847C342.347 104.256 341.955 104.581 341.466 104.824C340.981 105.062 340.417 105.182 339.773 105.182Z" fill="black"/>
<path d="M136.295 82.3636V94H134.886V83.8409H134.818L131.977 85.7273V84.2955L134.886 82.3636H136.295ZM139.955 94.0909C139.674 94.0909 139.434 93.9905 139.233 93.7898C139.032 93.589 138.932 93.3485 138.932 93.0682C138.932 92.7879 139.032 92.5473 139.233 92.3466C139.434 92.1458 139.674 92.0455 139.955 92.0455C140.235 92.0455 140.475 92.1458 140.676 92.3466C140.877 92.5473 140.977 92.7879 140.977 93.0682C140.977 93.2538 140.93 93.4242 140.835 93.5795C140.744 93.7348 140.621 93.8598 140.466 93.9545C140.314 94.0455 140.144 94.0909 139.955 94.0909ZM146.763 94.1591C146.096 94.1591 145.496 94.0265 144.962 93.7614C144.428 93.4962 144 93.1326 143.678 92.6705C143.356 92.2083 143.179 91.6818 143.149 91.0909H144.513C144.566 91.6174 144.804 92.053 145.229 92.3977C145.657 92.7386 146.168 92.9091 146.763 92.9091C147.24 92.9091 147.664 92.7973 148.036 92.5739C148.411 92.3504 148.704 92.0436 148.916 91.6534C149.132 91.2595 149.24 90.8144 149.24 90.3182C149.24 89.8106 149.128 89.358 148.905 88.9602C148.685 88.5587 148.382 88.2424 147.996 88.0114C147.609 87.7803 147.168 87.6629 146.672 87.6591C146.316 87.6553 145.95 87.7102 145.575 87.8239C145.2 87.9337 144.892 88.0758 144.649 88.25L143.331 88.0909L144.036 82.3636H150.081V83.6136H145.217L144.808 87.0455H144.876C145.115 86.8561 145.414 86.6989 145.774 86.5739C146.134 86.4489 146.509 86.3864 146.899 86.3864C147.611 86.3864 148.246 86.5568 148.803 86.8977C149.363 87.2348 149.803 87.697 150.121 88.2841C150.443 88.8712 150.604 89.5417 150.604 90.2955C150.604 91.0379 150.437 91.7008 150.104 92.2841C149.774 92.8636 149.32 93.322 148.74 93.6591C148.161 93.9924 147.501 94.1591 146.763 94.1591Z" fill="black"/>
<path d="M266.205 94V92.9773L270.045 88.7727C270.496 88.2803 270.867 87.8523 271.159 87.4886C271.451 87.1212 271.667 86.7765 271.807 86.4545C271.951 86.1288 272.023 85.7879 272.023 85.4318C272.023 85.0227 271.924 84.6686 271.727 84.3693C271.534 84.0701 271.269 83.839 270.932 83.6761C270.595 83.5133 270.216 83.4318 269.795 83.4318C269.348 83.4318 268.958 83.5246 268.625 83.7102C268.295 83.892 268.04 84.1477 267.858 84.4773C267.68 84.8068 267.591 85.1932 267.591 85.6364H266.25C266.25 84.9545 266.407 84.3561 266.722 83.8409C267.036 83.3258 267.464 82.9242 268.006 82.6364C268.551 82.3485 269.163 82.2045 269.841 82.2045C270.523 82.2045 271.127 82.3485 271.653 82.6364C272.18 82.9242 272.593 83.3125 272.892 83.8011C273.191 84.2898 273.341 84.8333 273.341 85.4318C273.341 85.8598 273.263 86.2784 273.108 86.6875C272.956 87.0928 272.691 87.5455 272.312 88.0455C271.938 88.5417 271.417 89.1477 270.75 89.8636L268.136 92.6591V92.75H273.545V94H266.205ZM276.892 94.0909C276.612 94.0909 276.371 93.9905 276.17 93.7898C275.97 93.589 275.869 93.3485 275.869 93.0682C275.869 92.7879 275.97 92.5473 276.17 92.3466C276.371 92.1458 276.612 92.0455 276.892 92.0455C277.172 92.0455 277.413 92.1458 277.614 92.3466C277.814 92.5473 277.915 92.7879 277.915 93.0682C277.915 93.2538 277.867 93.4242 277.773 93.5795C277.682 93.7348 277.559 93.8598 277.403 93.9545C277.252 94.0455 277.081 94.0909 276.892 94.0909ZM283.7 94.1591C283.034 94.1591 282.433 94.0265 281.899 93.7614C281.365 93.4962 280.937 93.1326 280.615 92.6705C280.293 92.2083 280.117 91.6818 280.087 91.0909H281.45C281.503 91.6174 281.742 92.053 282.166 92.3977C282.594 92.7386 283.106 92.9091 283.7 92.9091C284.178 92.9091 284.602 92.7973 284.973 92.5739C285.348 92.3504 285.642 92.0436 285.854 91.6534C286.07 91.2595 286.178 90.8144 286.178 90.3182C286.178 89.8106 286.066 89.358 285.842 88.9602C285.623 88.5587 285.32 88.2424 284.933 88.0114C284.547 87.7803 284.106 87.6629 283.609 87.6591C283.253 87.6553 282.888 87.7102 282.513 87.8239C282.138 87.9337 281.829 88.0758 281.587 88.25L280.268 88.0909L280.973 82.3636H287.018V83.6136H282.155L281.746 87.0455H281.814C282.053 86.8561 282.352 86.6989 282.712 86.5739C283.071 86.4489 283.446 86.3864 283.837 86.3864C284.549 86.3864 285.183 86.5568 285.74 86.8977C286.301 87.2348 286.74 87.697 287.058 88.2841C287.38 88.8712 287.541 89.5417 287.541 90.2955C287.541 91.0379 287.375 91.7008 287.041 92.2841C286.712 92.8636 286.257 93.322 285.678 93.6591C285.098 93.9924 284.439 94.1591 283.7 94.1591Z" fill="black"/>
<path d="M180.841 214.159C180.174 214.159 179.574 214.027 179.04 213.761C178.506 213.496 178.078 213.133 177.756 212.67C177.434 212.208 177.258 211.682 177.227 211.091H178.591C178.644 211.617 178.883 212.053 179.307 212.398C179.735 212.739 180.246 212.909 180.841 212.909C181.318 212.909 181.742 212.797 182.114 212.574C182.489 212.35 182.782 212.044 182.994 211.653C183.21 211.259 183.318 210.814 183.318 210.318C183.318 209.811 183.206 209.358 182.983 208.96C182.763 208.559 182.46 208.242 182.074 208.011C181.688 207.78 181.246 207.663 180.75 207.659C180.394 207.655 180.028 207.71 179.653 207.824C179.278 207.934 178.97 208.076 178.727 208.25L177.409 208.091L178.114 202.364H184.159V203.614H179.295L178.886 207.045H178.955C179.193 206.856 179.492 206.699 179.852 206.574C180.212 206.449 180.587 206.386 180.977 206.386C181.689 206.386 182.324 206.557 182.881 206.898C183.441 207.235 183.881 207.697 184.199 208.284C184.521 208.871 184.682 209.542 184.682 210.295C184.682 211.038 184.515 211.701 184.182 212.284C183.852 212.864 183.398 213.322 182.818 213.659C182.239 213.992 181.58 214.159 180.841 214.159ZM187.501 214.091C187.221 214.091 186.981 213.991 186.78 213.79C186.579 213.589 186.479 213.348 186.479 213.068C186.479 212.788 186.579 212.547 186.78 212.347C186.981 212.146 187.221 212.045 187.501 212.045C187.782 212.045 188.022 212.146 188.223 212.347C188.424 212.547 188.524 212.788 188.524 213.068C188.524 213.254 188.477 213.424 188.382 213.58C188.291 213.735 188.168 213.86 188.013 213.955C187.861 214.045 187.691 214.091 187.501 214.091ZM194.297 214.159C193.441 214.159 192.712 213.926 192.109 213.46C191.507 212.991 191.047 212.311 190.729 211.42C190.411 210.527 190.251 209.447 190.251 208.182C190.251 206.924 190.411 205.85 190.729 204.96C191.051 204.066 191.513 203.384 192.115 202.915C192.721 202.441 193.448 202.205 194.297 202.205C195.145 202.205 195.871 202.441 196.473 202.915C197.079 203.384 197.541 204.066 197.859 204.96C198.181 205.85 198.342 206.924 198.342 208.182C198.342 209.447 198.183 210.527 197.865 211.42C197.547 212.311 197.087 212.991 196.484 213.46C195.882 213.926 195.153 214.159 194.297 214.159ZM194.297 212.909C195.145 212.909 195.804 212.5 196.274 211.682C196.744 210.864 196.979 209.697 196.979 208.182C196.979 207.174 196.871 206.316 196.655 205.608C196.443 204.9 196.136 204.36 195.734 203.989C195.337 203.617 194.857 203.432 194.297 203.432C193.456 203.432 192.799 203.847 192.325 204.676C191.852 205.502 191.615 206.67 191.615 208.182C191.615 209.189 191.721 210.045 191.933 210.75C192.145 211.455 192.45 211.991 192.848 212.358C193.25 212.725 193.732 212.909 194.297 212.909Z" fill="black"/>
<path d="M124 120.159C123.144 120.159 122.415 119.926 121.812 119.46C121.21 118.991 120.75 118.311 120.432 117.42C120.114 116.527 119.955 115.447 119.955 114.182C119.955 112.924 120.114 111.85 120.432 110.96C120.754 110.066 121.216 109.384 121.818 108.915C122.424 108.441 123.152 108.205 124 108.205C124.848 108.205 125.574 108.441 126.176 108.915C126.782 109.384 127.244 110.066 127.562 110.96C127.884 111.85 128.045 112.924 128.045 114.182C128.045 115.447 127.886 116.527 127.568 117.42C127.25 118.311 126.79 118.991 126.188 119.46C125.585 119.926 124.856 120.159 124 120.159ZM124 118.909C124.848 118.909 125.508 118.5 125.977 117.682C126.447 116.864 126.682 115.697 126.682 114.182C126.682 113.174 126.574 112.316 126.358 111.608C126.146 110.9 125.839 110.36 125.438 109.989C125.04 109.617 124.561 109.432 124 109.432C123.159 109.432 122.502 109.847 122.028 110.676C121.555 111.502 121.318 112.67 121.318 114.182C121.318 115.189 121.424 116.045 121.636 116.75C121.848 117.455 122.153 117.991 122.551 118.358C122.953 118.725 123.436 118.909 124 118.909ZM130.798 120.091C130.518 120.091 130.277 119.991 130.077 119.79C129.876 119.589 129.776 119.348 129.776 119.068C129.776 118.788 129.876 118.547 130.077 118.347C130.277 118.146 130.518 118.045 130.798 118.045C131.079 118.045 131.319 118.146 131.52 118.347C131.721 118.547 131.821 118.788 131.821 119.068C131.821 119.254 131.774 119.424 131.679 119.58C131.588 119.735 131.465 119.86 131.31 119.955C131.158 120.045 130.988 120.091 130.798 120.091ZM137.662 120.159C137.185 120.152 136.707 120.061 136.23 119.886C135.753 119.712 135.317 119.419 134.923 119.006C134.529 118.589 134.213 118.027 133.974 117.318C133.736 116.606 133.616 115.712 133.616 114.636C133.616 113.606 133.713 112.693 133.906 111.898C134.099 111.098 134.38 110.426 134.747 109.881C135.115 109.331 135.558 108.915 136.077 108.631C136.599 108.347 137.188 108.205 137.844 108.205C138.495 108.205 139.075 108.335 139.582 108.597C140.094 108.854 140.51 109.214 140.832 109.676C141.154 110.138 141.363 110.67 141.457 111.273H140.071C139.942 110.75 139.692 110.316 139.321 109.972C138.95 109.627 138.457 109.455 137.844 109.455C136.942 109.455 136.232 109.847 135.713 110.631C135.198 111.415 134.938 112.515 134.935 113.932H135.026C135.238 113.61 135.49 113.335 135.781 113.108C136.077 112.877 136.402 112.699 136.759 112.574C137.115 112.449 137.491 112.386 137.889 112.386C138.556 112.386 139.166 112.553 139.719 112.886C140.272 113.216 140.715 113.672 141.048 114.256C141.382 114.835 141.548 115.5 141.548 116.25C141.548 116.97 141.387 117.629 141.065 118.227C140.743 118.822 140.291 119.295 139.707 119.648C139.128 119.996 138.446 120.167 137.662 120.159ZM137.662 118.909C138.139 118.909 138.567 118.79 138.946 118.551C139.329 118.312 139.63 117.992 139.849 117.591C140.073 117.189 140.185 116.742 140.185 116.25C140.185 115.769 140.077 115.331 139.861 114.938C139.649 114.54 139.355 114.223 138.98 113.989C138.609 113.754 138.185 113.636 137.707 113.636C137.348 113.636 137.012 113.708 136.702 113.852C136.391 113.992 136.118 114.186 135.884 114.432C135.652 114.678 135.471 114.96 135.338 115.278C135.205 115.593 135.139 115.924 135.139 116.273C135.139 116.735 135.247 117.167 135.463 117.568C135.683 117.97 135.982 118.294 136.361 118.54C136.743 118.786 137.177 118.909 137.662 118.909ZM147.646 120.159C147.169 120.152 146.692 120.061 146.214 119.886C145.737 119.712 145.302 119.419 144.908 119.006C144.514 118.589 144.197 118.027 143.959 117.318C143.72 116.606 143.601 115.712 143.601 114.636C143.601 113.606 143.697 112.693 143.891 111.898C144.084 111.098 144.364 110.426 144.732 109.881C145.099 109.331 145.542 108.915 146.061 108.631C146.584 108.347 147.173 108.205 147.828 108.205C148.48 108.205 149.059 108.335 149.567 108.597C150.078 108.854 150.495 109.214 150.817 109.676C151.139 110.138 151.347 110.67 151.442 111.273H150.055C149.927 110.75 149.677 110.316 149.305 109.972C148.934 109.627 148.442 109.455 147.828 109.455C146.927 109.455 146.216 109.847 145.697 110.631C145.182 111.415 144.923 112.515 144.919 113.932H145.01C145.222 113.61 145.474 113.335 145.766 113.108C146.061 112.877 146.387 112.699 146.743 112.574C147.099 112.449 147.476 112.386 147.874 112.386C148.54 112.386 149.15 112.553 149.703 112.886C150.256 113.216 150.699 113.672 151.033 114.256C151.366 114.835 151.533 115.5 151.533 116.25C151.533 116.97 151.372 117.629 151.05 118.227C150.728 118.822 150.275 119.295 149.692 119.648C149.112 119.996 148.43 120.167 147.646 120.159ZM147.646 118.909C148.124 118.909 148.552 118.79 148.93 118.551C149.313 118.312 149.614 117.992 149.834 117.591C150.057 117.189 150.169 116.742 150.169 116.25C150.169 115.769 150.061 115.331 149.845 114.938C149.633 114.54 149.339 114.223 148.964 113.989C148.593 113.754 148.169 113.636 147.692 113.636C147.332 113.636 146.997 113.708 146.686 113.852C146.375 113.992 146.103 114.186 145.868 114.432C145.637 114.678 145.455 114.96 145.322 115.278C145.19 115.593 145.124 115.924 145.124 116.273C145.124 116.735 145.232 117.167 145.447 117.568C145.667 117.97 145.966 118.294 146.345 118.54C146.728 118.786 147.161 118.909 147.646 118.909ZM157.631 120.159C157.153 120.152 156.676 120.061 156.199 119.886C155.722 119.712 155.286 119.419 154.892 119.006C154.498 118.589 154.182 118.027 153.943 117.318C153.705 116.606 153.585 115.712 153.585 114.636C153.585 113.606 153.682 112.693 153.875 111.898C154.068 111.098 154.348 110.426 154.716 109.881C155.083 109.331 155.527 108.915 156.045 108.631C156.568 108.347 157.157 108.205 157.812 108.205C158.464 108.205 159.044 108.335 159.551 108.597C160.063 108.854 160.479 109.214 160.801 109.676C161.123 110.138 161.331 110.67 161.426 111.273H160.04C159.911 110.75 159.661 110.316 159.29 109.972C158.919 109.627 158.426 109.455 157.812 109.455C156.911 109.455 156.201 109.847 155.682 110.631C155.167 111.415 154.907 112.515 154.903 113.932H154.994C155.206 113.61 155.458 113.335 155.75 113.108C156.045 112.877 156.371 112.699 156.727 112.574C157.083 112.449 157.46 112.386 157.858 112.386C158.525 112.386 159.134 112.553 159.688 112.886C160.241 113.216 160.684 113.672 161.017 114.256C161.35 114.835 161.517 115.5 161.517 116.25C161.517 116.97 161.356 117.629 161.034 118.227C160.712 118.822 160.259 119.295 159.676 119.648C159.097 119.996 158.415 120.167 157.631 120.159ZM157.631 118.909C158.108 118.909 158.536 118.79 158.915 118.551C159.297 118.312 159.598 117.992 159.818 117.591C160.042 117.189 160.153 116.742 160.153 116.25C160.153 115.769 160.045 115.331 159.83 114.938C159.617 114.54 159.324 114.223 158.949 113.989C158.578 113.754 158.153 113.636 157.676 113.636C157.316 113.636 156.981 113.708 156.67 113.852C156.36 113.992 156.087 114.186 155.852 114.432C155.621 114.678 155.439 114.96 155.307 115.278C155.174 115.593 155.108 115.924 155.108 116.273C155.108 116.735 155.216 117.167 155.432 117.568C155.652 117.97 155.951 118.294 156.33 118.54C156.712 118.786 157.146 118.909 157.631 118.909Z" fill="black"/>
<path d="M269 120.159C268.144 120.159 267.415 119.926 266.812 119.46C266.21 118.991 265.75 118.311 265.432 117.42C265.114 116.527 264.955 115.447 264.955 114.182C264.955 112.924 265.114 111.85 265.432 110.96C265.754 110.066 266.216 109.384 266.818 108.915C267.424 108.441 268.152 108.205 269 108.205C269.848 108.205 270.574 108.441 271.176 108.915C271.782 109.384 272.244 110.066 272.562 110.96C272.884 111.85 273.045 112.924 273.045 114.182C273.045 115.447 272.886 116.527 272.568 117.42C272.25 118.311 271.79 118.991 271.188 119.46C270.585 119.926 269.856 120.159 269 120.159ZM269 118.909C269.848 118.909 270.508 118.5 270.977 117.682C271.447 116.864 271.682 115.697 271.682 114.182C271.682 113.174 271.574 112.316 271.358 111.608C271.146 110.9 270.839 110.36 270.438 109.989C270.04 109.617 269.561 109.432 269 109.432C268.159 109.432 267.502 109.847 267.028 110.676C266.555 111.502 266.318 112.67 266.318 114.182C266.318 115.189 266.424 116.045 266.636 116.75C266.848 117.455 267.153 117.991 267.551 118.358C267.953 118.725 268.436 118.909 269 118.909ZM275.798 120.091C275.518 120.091 275.277 119.991 275.077 119.79C274.876 119.589 274.776 119.348 274.776 119.068C274.776 118.788 274.876 118.547 275.077 118.347C275.277 118.146 275.518 118.045 275.798 118.045C276.079 118.045 276.319 118.146 276.52 118.347C276.721 118.547 276.821 118.788 276.821 119.068C276.821 119.254 276.774 119.424 276.679 119.58C276.588 119.735 276.465 119.86 276.31 119.955C276.158 120.045 275.988 120.091 275.798 120.091ZM278.932 117.614V116.455L284.045 108.364H284.886V110.159H284.318L280.455 116.273V116.364H287.341V117.614H278.932ZM284.409 120V117.261V116.722V108.364H285.75V120H284.409Z" fill="black"/>
<path d="M181 244.159C180.144 244.159 179.415 243.926 178.812 243.46C178.21 242.991 177.75 242.311 177.432 241.42C177.114 240.527 176.955 239.447 176.955 238.182C176.955 236.924 177.114 235.85 177.432 234.96C177.754 234.066 178.216 233.384 178.818 232.915C179.424 232.441 180.152 232.205 181 232.205C181.848 232.205 182.574 232.441 183.176 232.915C183.782 233.384 184.244 234.066 184.562 234.96C184.884 235.85 185.045 236.924 185.045 238.182C185.045 239.447 184.886 240.527 184.568 241.42C184.25 242.311 183.79 242.991 183.188 243.46C182.585 243.926 181.856 244.159 181 244.159ZM181 242.909C181.848 242.909 182.508 242.5 182.977 241.682C183.447 240.864 183.682 239.697 183.682 238.182C183.682 237.174 183.574 236.316 183.358 235.608C183.146 234.9 182.839 234.36 182.438 233.989C182.04 233.617 181.561 233.432 181 233.432C180.159 233.432 179.502 233.847 179.028 234.676C178.555 235.502 178.318 236.67 178.318 238.182C178.318 239.189 178.424 240.045 178.636 240.75C178.848 241.455 179.153 241.991 179.551 242.358C179.953 242.725 180.436 242.909 181 242.909ZM187.798 244.091C187.518 244.091 187.277 243.991 187.077 243.79C186.876 243.589 186.776 243.348 186.776 243.068C186.776 242.788 186.876 242.547 187.077 242.347C187.277 242.146 187.518 242.045 187.798 242.045C188.079 242.045 188.319 242.146 188.52 242.347C188.721 242.547 188.821 242.788 188.821 243.068C188.821 243.254 188.774 243.424 188.679 243.58C188.588 243.735 188.465 243.86 188.31 243.955C188.158 244.045 187.988 244.091 187.798 244.091ZM191.205 244V242.977L195.045 238.773C195.496 238.28 195.867 237.852 196.159 237.489C196.451 237.121 196.667 236.777 196.807 236.455C196.951 236.129 197.023 235.788 197.023 235.432C197.023 235.023 196.924 234.669 196.727 234.369C196.534 234.07 196.269 233.839 195.932 233.676C195.595 233.513 195.216 233.432 194.795 233.432C194.348 233.432 193.958 233.525 193.625 233.71C193.295 233.892 193.04 234.148 192.858 234.477C192.68 234.807 192.591 235.193 192.591 235.636H191.25C191.25 234.955 191.407 234.356 191.722 233.841C192.036 233.326 192.464 232.924 193.006 232.636C193.551 232.348 194.163 232.205 194.841 232.205C195.523 232.205 196.127 232.348 196.653 232.636C197.18 232.924 197.593 233.312 197.892 233.801C198.191 234.29 198.341 234.833 198.341 235.432C198.341 235.86 198.263 236.278 198.108 236.688C197.956 237.093 197.691 237.545 197.312 238.045C196.938 238.542 196.417 239.148 195.75 239.864L193.136 242.659V242.75H198.545V244H191.205Z" fill="black"/>
<path d="M431.795 80.2045C431.242 80.2045 430.741 80.1004 430.29 79.892C429.839 79.6799 429.481 79.375 429.216 78.9773C428.951 78.5758 428.818 78.0909 428.818 77.5227C428.818 77.0227 428.917 76.6174 429.114 76.3068C429.311 75.9924 429.574 75.7462 429.903 75.5682C430.233 75.3902 430.597 75.2576 430.994 75.1705C431.396 75.0795 431.799 75.0076 432.205 74.9545C432.735 74.8864 433.165 74.8352 433.494 74.8011C433.828 74.7633 434.07 74.7008 434.222 74.6136C434.377 74.5265 434.455 74.375 434.455 74.1591V74.1136C434.455 73.553 434.301 73.1174 433.994 72.8068C433.691 72.4962 433.231 72.3409 432.614 72.3409C431.973 72.3409 431.472 72.4811 431.108 72.7614C430.744 73.0417 430.489 73.3409 430.341 73.6591L429.068 73.2045C429.295 72.6742 429.598 72.2614 429.977 71.9659C430.36 71.6667 430.777 71.4583 431.227 71.3409C431.682 71.2197 432.129 71.1591 432.568 71.1591C432.848 71.1591 433.17 71.1932 433.534 71.2614C433.902 71.3258 434.256 71.4602 434.597 71.6648C434.941 71.8693 435.227 72.178 435.455 72.5909C435.682 73.0038 435.795 73.5568 435.795 74.25V80H434.455V78.8182H434.386C434.295 79.0076 434.144 79.2102 433.932 79.4261C433.72 79.642 433.438 79.8258 433.085 79.9773C432.733 80.1288 432.303 80.2045 431.795 80.2045ZM432 79C432.53 79 432.977 78.8958 433.341 78.6875C433.708 78.4792 433.985 78.2102 434.17 77.8807C434.36 77.5511 434.455 77.2045 434.455 76.8409V75.6136C434.398 75.6818 434.273 75.7443 434.08 75.8011C433.89 75.8542 433.67 75.9015 433.42 75.9432C433.174 75.9811 432.934 76.0152 432.699 76.0455C432.468 76.072 432.28 76.0947 432.136 76.1136C431.788 76.1591 431.462 76.233 431.159 76.3352C430.86 76.4337 430.617 76.5833 430.432 76.7841C430.25 76.9811 430.159 77.25 430.159 77.5909C430.159 78.0568 430.331 78.4091 430.676 78.6477C431.025 78.8826 431.466 79 432 79ZM442.357 67.8182L438.607 81.75H437.379L441.129 67.8182H442.357ZM447.491 80.1818C446.673 80.1818 445.969 79.9886 445.378 79.6023C444.787 79.2159 444.332 78.6837 444.014 78.0057C443.696 77.3277 443.537 76.553 443.537 75.6818C443.537 74.7955 443.7 74.0133 444.026 73.3352C444.355 72.6534 444.813 72.1212 445.401 71.7386C445.991 71.3523 446.681 71.1591 447.469 71.1591C448.082 71.1591 448.635 71.2727 449.128 71.5C449.62 71.7273 450.024 72.0455 450.338 72.4545C450.652 72.8636 450.848 73.3409 450.923 73.8864H449.582C449.48 73.4886 449.253 73.1364 448.901 72.8295C448.552 72.5189 448.082 72.3636 447.491 72.3636C446.969 72.3636 446.51 72.5 446.116 72.7727C445.726 73.0417 445.421 73.4223 445.202 73.9148C444.986 74.4034 444.878 74.9773 444.878 75.6364C444.878 76.3106 444.984 76.8977 445.196 77.3977C445.412 77.8977 445.715 78.286 446.105 78.5625C446.499 78.839 446.961 78.9773 447.491 78.9773C447.84 78.9773 448.156 78.9167 448.44 78.7955C448.724 78.6742 448.965 78.5 449.162 78.2727C449.359 78.0455 449.499 77.7727 449.582 77.4545H450.923C450.848 77.9697 450.66 78.4337 450.361 78.8466C450.065 79.2557 449.673 79.5814 449.185 79.8239C448.7 80.0625 448.135 80.1818 447.491 80.1818ZM457.929 74.3864V73.1591H464.929V74.3864H457.929ZM457.929 77.75V76.5227H464.929V77.75H457.929ZM474.999 80.2045C474.446 80.2045 473.944 80.1004 473.493 79.892C473.042 79.6799 472.684 79.375 472.419 78.9773C472.154 78.5758 472.021 78.0909 472.021 77.5227C472.021 77.0227 472.12 76.6174 472.317 76.3068C472.514 75.9924 472.777 75.7462 473.107 75.5682C473.436 75.3902 473.8 75.2576 474.197 75.1705C474.599 75.0795 475.002 75.0076 475.408 74.9545C475.938 74.8864 476.368 74.8352 476.697 74.8011C477.031 74.7633 477.273 74.7008 477.425 74.6136C477.58 74.5265 477.658 74.375 477.658 74.1591V74.1136C477.658 73.553 477.504 73.1174 477.197 72.8068C476.894 72.4962 476.434 72.3409 475.817 72.3409C475.177 72.3409 474.675 72.4811 474.311 72.7614C473.947 73.0417 473.692 73.3409 473.544 73.6591L472.271 73.2045C472.499 72.6742 472.802 72.2614 473.18 71.9659C473.563 71.6667 473.98 71.4583 474.43 71.3409C474.885 71.2197 475.332 71.1591 475.771 71.1591C476.052 71.1591 476.374 71.1932 476.737 71.2614C477.105 71.3258 477.459 71.4602 477.8 71.6648C478.144 71.8693 478.43 72.178 478.658 72.5909C478.885 73.0038 478.999 73.5568 478.999 74.25V80H477.658V78.8182H477.589C477.499 79.0076 477.347 79.2102 477.135 79.4261C476.923 79.642 476.641 79.8258 476.288 79.9773C475.936 80.1288 475.506 80.2045 474.999 80.2045ZM475.203 79C475.733 79 476.18 78.8958 476.544 78.6875C476.911 78.4792 477.188 78.2102 477.374 77.8807C477.563 77.5511 477.658 77.2045 477.658 76.8409V75.6136C477.601 75.6818 477.476 75.7443 477.283 75.8011C477.093 75.8542 476.874 75.9015 476.624 75.9432C476.377 75.9811 476.137 76.0152 475.902 76.0455C475.671 76.072 475.483 76.0947 475.339 76.1136C474.991 76.1591 474.665 76.233 474.362 76.3352C474.063 76.4337 473.821 76.5833 473.635 76.7841C473.453 76.9811 473.362 77.25 473.362 77.5909C473.362 78.0568 473.535 78.4091 473.879 78.6477C474.228 78.8826 474.669 79 475.203 79ZM485.56 67.8182L481.81 81.75H480.582L484.332 67.8182H485.56ZM487.331 80V68.3636H488.672V72.6591H488.786C488.884 72.5076 489.02 72.3144 489.195 72.0795C489.373 71.8409 489.626 71.6288 489.956 71.4432C490.289 71.2538 490.74 71.1591 491.308 71.1591C492.043 71.1591 492.691 71.3428 493.251 71.7102C493.812 72.0777 494.25 72.5985 494.564 73.2727C494.878 73.947 495.036 74.7424 495.036 75.6591C495.036 76.5833 494.878 77.3845 494.564 78.0625C494.25 78.7367 493.814 79.2595 493.257 79.6307C492.7 79.9981 492.058 80.1818 491.331 80.1818C490.77 80.1818 490.321 80.089 489.984 79.9034C489.647 79.714 489.388 79.5 489.206 79.2614C489.024 79.0189 488.884 78.8182 488.786 78.6591H488.626V80H487.331ZM488.649 75.6364C488.649 76.2955 488.746 76.8769 488.939 77.3807C489.132 77.8807 489.414 78.2727 489.786 78.5568C490.157 78.8371 490.611 78.9773 491.149 78.9773C491.71 78.9773 492.178 78.8295 492.553 78.5341C492.931 78.2348 493.215 77.8333 493.405 77.3295C493.598 76.822 493.695 76.2576 493.695 75.6364C493.695 75.0227 493.6 74.4697 493.411 73.9773C493.225 73.4811 492.943 73.089 492.564 72.8011C492.189 72.5095 491.717 72.3636 491.149 72.3636C490.604 72.3636 490.145 72.5019 489.774 72.7784C489.403 73.0511 489.123 73.4337 488.933 73.9261C488.744 74.4148 488.649 74.9848 488.649 75.6364ZM503.814 74.9091L503.905 72.4091L501.791 73.75L501.246 72.7955L503.473 71.6364L501.246 70.4773L501.791 69.5227L503.905 70.8636L503.814 68.3636H504.905L504.814 70.8636L506.928 69.5227L507.473 70.4773L505.246 71.6364L507.473 72.7955L506.928 73.75L504.814 72.4091L504.905 74.9091H503.814ZM514.268 80V68.3636H515.609V72.6591H515.723C515.821 72.5076 515.958 72.3144 516.132 72.0795C516.31 71.8409 516.564 71.6288 516.893 71.4432C517.227 71.2538 517.678 71.1591 518.246 71.1591C518.981 71.1591 519.628 71.3428 520.189 71.7102C520.75 72.0777 521.187 72.5985 521.501 73.2727C521.816 73.947 521.973 74.7424 521.973 75.6591C521.973 76.5833 521.816 77.3845 521.501 78.0625C521.187 78.7367 520.751 79.2595 520.195 79.6307C519.638 79.9981 518.996 80.1818 518.268 80.1818C517.708 80.1818 517.259 80.089 516.922 79.9034C516.585 79.714 516.325 79.5 516.143 79.2614C515.962 79.0189 515.821 78.8182 515.723 78.6591H515.564V80H514.268ZM515.587 75.6364C515.587 76.2955 515.683 76.8769 515.876 77.3807C516.07 77.8807 516.352 78.2727 516.723 78.5568C517.094 78.8371 517.549 78.9773 518.087 78.9773C518.647 78.9773 519.115 78.8295 519.49 78.5341C519.869 78.2348 520.153 77.8333 520.342 77.3295C520.536 76.822 520.632 76.2576 520.632 75.6364C520.632 75.0227 520.537 74.4697 520.348 73.9773C520.162 73.4811 519.88 73.089 519.501 72.8011C519.126 72.5095 518.655 72.3636 518.087 72.3636C517.541 72.3636 517.083 72.5019 516.712 72.7784C516.34 73.0511 516.06 73.4337 515.871 73.9261C515.681 74.4148 515.587 74.9848 515.587 75.6364ZM528.138 67.8182L524.388 81.75H523.161L526.911 67.8182H528.138ZM533.273 80.1818C532.455 80.1818 531.75 79.9886 531.159 79.6023C530.568 79.2159 530.114 78.6837 529.795 78.0057C529.477 77.3277 529.318 76.553 529.318 75.6818C529.318 74.7955 529.481 74.0133 529.807 73.3352C530.136 72.6534 530.595 72.1212 531.182 71.7386C531.773 71.3523 532.462 71.1591 533.25 71.1591C533.864 71.1591 534.417 71.2727 534.909 71.5C535.402 71.7273 535.805 72.0455 536.119 72.4545C536.434 72.8636 536.629 73.3409 536.705 73.8864H535.364C535.261 73.4886 535.034 73.1364 534.682 72.8295C534.333 72.5189 533.864 72.3636 533.273 72.3636C532.75 72.3636 532.292 72.5 531.898 72.7727C531.508 73.0417 531.203 73.4223 530.983 73.9148C530.767 74.4034 530.659 74.9773 530.659 75.6364C530.659 76.3106 530.765 76.8977 530.977 77.3977C531.193 77.8977 531.496 78.286 531.886 78.5625C532.28 78.839 532.742 78.9773 533.273 78.9773C533.621 78.9773 533.938 78.9167 534.222 78.7955C534.506 78.6742 534.746 78.5 534.943 78.2727C535.14 78.0455 535.28 77.7727 535.364 77.4545H536.705C536.629 77.9697 536.441 78.4337 536.142 78.8466C535.847 79.2557 535.455 79.5814 534.966 79.8239C534.481 80.0625 533.917 80.1818 533.273 80.1818ZM543.71 73.1136V71.8864H550.71V73.1136H543.71ZM543.71 76.4773V75.25H550.71V76.4773H543.71ZM562.28 68.3636V80H560.871V69.8409H560.803L557.962 71.7273V70.2955L560.871 68.3636H562.28ZM565.939 80.0909C565.659 80.0909 565.418 79.9905 565.217 79.7898C565.017 79.589 564.916 79.3485 564.916 79.0682C564.916 78.7879 565.017 78.5473 565.217 78.3466C565.418 78.1458 565.659 78.0455 565.939 78.0455C566.219 78.0455 566.46 78.1458 566.661 78.3466C566.861 78.5473 566.962 78.7879 566.962 79.0682C566.962 79.2538 566.914 79.4242 566.82 79.5795C566.729 79.7348 566.606 79.8598 566.45 79.9545C566.299 80.0455 566.128 80.0909 565.939 80.0909ZM572.747 80.1591C572.08 80.1591 571.48 80.0265 570.946 79.7614C570.412 79.4962 569.984 79.1326 569.662 78.6705C569.34 78.2083 569.164 77.6818 569.134 77.0909H570.497C570.55 77.6174 570.789 78.053 571.213 78.3977C571.641 78.7386 572.152 78.9091 572.747 78.9091C573.224 78.9091 573.649 78.7973 574.02 78.5739C574.395 78.3504 574.688 78.0436 574.901 77.6534C575.116 77.2595 575.224 76.8144 575.224 76.3182C575.224 75.8106 575.113 75.358 574.889 74.9602C574.67 74.5587 574.366 74.2424 573.98 74.0114C573.594 73.7803 573.152 73.6629 572.656 73.6591C572.3 73.6553 571.935 73.7102 571.56 73.8239C571.185 73.9337 570.876 74.0758 570.634 74.25L569.315 74.0909L570.02 68.3636H576.065V69.6136H571.202L570.793 73.0455H570.861C571.099 72.8561 571.399 72.6989 571.759 72.5739C572.118 72.4489 572.493 72.3864 572.884 72.3864C573.596 72.3864 574.23 72.5568 574.787 72.8977C575.348 73.2348 575.787 73.697 576.105 74.2841C576.427 74.8712 576.588 75.5417 576.588 76.2955C576.588 77.0379 576.421 77.7008 576.088 78.2841C575.759 78.8636 575.304 79.322 574.724 79.6591C574.145 79.9924 573.486 80.1591 572.747 80.1591ZM585.595 77.4545L585.686 74.9545L583.572 76.2955L583.027 75.3409L585.254 74.1818L583.027 73.0227L583.572 72.0682L585.686 73.4091L585.595 70.9091H586.686L586.595 73.4091L588.709 72.0682L589.254 73.0227L587.027 74.1818L589.254 75.3409L588.709 76.2955L586.595 74.9545L586.686 77.4545H585.595ZM595.845 80V78.9773L599.686 74.7727C600.137 74.2803 600.508 73.8523 600.8 73.4886C601.091 73.1212 601.307 72.7765 601.447 72.4545C601.591 72.1288 601.663 71.7879 601.663 71.4318C601.663 71.0227 601.565 70.6686 601.368 70.3693C601.175 70.0701 600.91 69.839 600.572 69.6761C600.235 69.5133 599.857 69.4318 599.436 69.4318C598.989 69.4318 598.599 69.5246 598.266 69.7102C597.936 69.892 597.68 70.1477 597.499 70.4773C597.321 70.8068 597.232 71.1932 597.232 71.6364H595.891C595.891 70.9545 596.048 70.3561 596.362 69.8409C596.677 69.3258 597.105 68.9242 597.646 68.6364C598.192 68.3485 598.804 68.2045 599.482 68.2045C600.163 68.2045 600.768 68.3485 601.294 68.6364C601.821 68.9242 602.233 69.3125 602.533 69.8011C602.832 70.2898 602.982 70.8333 602.982 71.4318C602.982 71.8598 602.904 72.2784 602.749 72.6875C602.597 73.0928 602.332 73.5455 601.953 74.0455C601.578 74.5417 601.057 75.1477 600.391 75.8636L597.777 78.6591V78.75H603.186V80H595.845ZM606.533 80.0909C606.252 80.0909 606.012 79.9905 605.811 79.7898C605.61 79.589 605.51 79.3485 605.51 79.0682C605.51 78.7879 605.61 78.5473 605.811 78.3466C606.012 78.1458 606.252 78.0455 606.533 78.0455C606.813 78.0455 607.054 78.1458 607.254 78.3466C607.455 78.5473 607.555 78.7879 607.555 79.0682C607.555 79.2538 607.508 79.4242 607.413 79.5795C607.322 79.7348 607.199 79.8598 607.044 79.9545C606.893 80.0455 606.722 80.0909 606.533 80.0909ZM613.341 80.1591C612.674 80.1591 612.074 80.0265 611.54 79.7614C611.006 79.4962 610.578 79.1326 610.256 78.6705C609.934 78.2083 609.758 77.6818 609.727 77.0909H611.091C611.144 77.6174 611.383 78.053 611.807 78.3977C612.235 78.7386 612.746 78.9091 613.341 78.9091C613.818 78.9091 614.242 78.7973 614.614 78.5739C614.989 78.3504 615.282 78.0436 615.494 77.6534C615.71 77.2595 615.818 76.8144 615.818 76.3182C615.818 75.8106 615.706 75.358 615.483 74.9602C615.263 74.5587 614.96 74.2424 614.574 74.0114C614.188 73.7803 613.746 73.6629 613.25 73.6591C612.894 73.6553 612.528 73.7102 612.153 73.8239C611.778 73.9337 611.47 74.0758 611.227 74.25L609.909 74.0909L610.614 68.3636H616.659V69.6136H611.795L611.386 73.0455H611.455C611.693 72.8561 611.992 72.6989 612.352 72.5739C612.712 72.4489 613.087 72.3864 613.477 72.3864C614.189 72.3864 614.824 72.5568 615.381 72.8977C615.941 73.2348 616.381 73.697 616.699 74.2841C617.021 74.8712 617.182 75.5417 617.182 76.2955C617.182 77.0379 617.015 77.7008 616.682 78.2841C616.352 78.8636 615.898 79.322 615.318 79.6591C614.739 79.9924 614.08 80.1591 613.341 80.1591Z" fill="black"/>
<path d="M432.773 120.182C431.955 120.182 431.25 119.989 430.659 119.602C430.068 119.216 429.614 118.684 429.295 118.006C428.977 117.328 428.818 116.553 428.818 115.682C428.818 114.795 428.981 114.013 429.307 113.335C429.636 112.653 430.095 112.121 430.682 111.739C431.273 111.352 431.962 111.159 432.75 111.159C433.364 111.159 433.917 111.273 434.409 111.5C434.902 111.727 435.305 112.045 435.619 112.455C435.934 112.864 436.129 113.341 436.205 113.886H434.864C434.761 113.489 434.534 113.136 434.182 112.83C433.833 112.519 433.364 112.364 432.773 112.364C432.25 112.364 431.792 112.5 431.398 112.773C431.008 113.042 430.703 113.422 430.483 113.915C430.267 114.403 430.159 114.977 430.159 115.636C430.159 116.311 430.265 116.898 430.477 117.398C430.693 117.898 430.996 118.286 431.386 118.562C431.78 118.839 432.242 118.977 432.773 118.977C433.121 118.977 433.438 118.917 433.722 118.795C434.006 118.674 434.246 118.5 434.443 118.273C434.64 118.045 434.78 117.773 434.864 117.455H436.205C436.129 117.97 435.941 118.434 435.642 118.847C435.347 119.256 434.955 119.581 434.466 119.824C433.981 120.062 433.417 120.182 432.773 120.182ZM442.278 107.818L438.528 121.75H437.301L441.051 107.818H442.278ZM444.05 120V108.364H445.391V112.659H445.504C445.603 112.508 445.739 112.314 445.913 112.08C446.091 111.841 446.345 111.629 446.675 111.443C447.008 111.254 447.459 111.159 448.027 111.159C448.762 111.159 449.41 111.343 449.97 111.71C450.531 112.078 450.968 112.598 451.283 113.273C451.597 113.947 451.754 114.742 451.754 115.659C451.754 116.583 451.597 117.384 451.283 118.062C450.968 118.737 450.533 119.259 449.976 119.631C449.419 119.998 448.777 120.182 448.05 120.182C447.489 120.182 447.04 120.089 446.703 119.903C446.366 119.714 446.107 119.5 445.925 119.261C445.743 119.019 445.603 118.818 445.504 118.659H445.345V120H444.05ZM445.368 115.636C445.368 116.295 445.464 116.877 445.658 117.381C445.851 117.881 446.133 118.273 446.504 118.557C446.875 118.837 447.33 118.977 447.868 118.977C448.429 118.977 448.896 118.83 449.271 118.534C449.65 118.235 449.934 117.833 450.124 117.33C450.317 116.822 450.413 116.258 450.413 115.636C450.413 115.023 450.319 114.47 450.129 113.977C449.944 113.481 449.661 113.089 449.283 112.801C448.908 112.509 448.436 112.364 447.868 112.364C447.322 112.364 446.864 112.502 446.493 112.778C446.122 113.051 445.841 113.434 445.652 113.926C445.463 114.415 445.368 114.985 445.368 115.636ZM458.851 113.114V111.886H465.851V113.114H458.851ZM458.851 116.477V115.25H465.851V116.477H458.851ZM477.125 120.159C476.269 120.159 475.54 119.926 474.938 119.46C474.335 118.991 473.875 118.311 473.557 117.42C473.239 116.527 473.08 115.447 473.08 114.182C473.08 112.924 473.239 111.85 473.557 110.96C473.879 110.066 474.341 109.384 474.943 108.915C475.549 108.441 476.277 108.205 477.125 108.205C477.973 108.205 478.699 108.441 479.301 108.915C479.907 109.384 480.369 110.066 480.688 110.96C481.009 111.85 481.17 112.924 481.17 114.182C481.17 115.447 481.011 116.527 480.693 117.42C480.375 118.311 479.915 118.991 479.312 119.46C478.71 119.926 477.981 120.159 477.125 120.159ZM477.125 118.909C477.973 118.909 478.633 118.5 479.102 117.682C479.572 116.864 479.807 115.697 479.807 114.182C479.807 113.174 479.699 112.316 479.483 111.608C479.271 110.9 478.964 110.36 478.562 109.989C478.165 109.617 477.686 109.432 477.125 109.432C476.284 109.432 475.627 109.847 475.153 110.676C474.68 111.502 474.443 112.67 474.443 114.182C474.443 115.189 474.549 116.045 474.761 116.75C474.973 117.455 475.278 117.991 475.676 118.358C476.078 118.725 476.561 118.909 477.125 118.909ZM483.923 120.091C483.643 120.091 483.402 119.991 483.202 119.79C483.001 119.589 482.901 119.348 482.901 119.068C482.901 118.788 483.001 118.547 483.202 118.347C483.402 118.146 483.643 118.045 483.923 118.045C484.204 118.045 484.444 118.146 484.645 118.347C484.846 118.547 484.946 118.788 484.946 119.068C484.946 119.254 484.899 119.424 484.804 119.58C484.713 119.735 484.59 119.86 484.435 119.955C484.283 120.045 484.113 120.091 483.923 120.091ZM487.057 117.614V116.455L492.17 108.364H493.011V110.159H492.443L488.58 116.273V116.364H495.466V117.614H487.057ZM492.534 120V117.261V116.722V108.364H493.875V120H492.534Z" fill="black"/>
<path d="M429.409 210V198.364H430.75V202.659H430.864C430.962 202.508 431.098 202.314 431.273 202.08C431.451 201.841 431.705 201.629 432.034 201.443C432.367 201.254 432.818 201.159 433.386 201.159C434.121 201.159 434.769 201.343 435.33 201.71C435.89 202.078 436.328 202.598 436.642 203.273C436.956 203.947 437.114 204.742 437.114 205.659C437.114 206.583 436.956 207.384 436.642 208.062C436.328 208.737 435.892 209.259 435.335 209.631C434.778 209.998 434.136 210.182 433.409 210.182C432.848 210.182 432.4 210.089 432.062 209.903C431.725 209.714 431.466 209.5 431.284 209.261C431.102 209.019 430.962 208.818 430.864 208.659H430.705V210H429.409ZM430.727 205.636C430.727 206.295 430.824 206.877 431.017 207.381C431.21 207.881 431.492 208.273 431.864 208.557C432.235 208.837 432.689 208.977 433.227 208.977C433.788 208.977 434.256 208.83 434.631 208.534C435.009 208.235 435.294 207.833 435.483 207.33C435.676 206.822 435.773 206.258 435.773 205.636C435.773 205.023 435.678 204.47 435.489 203.977C435.303 203.481 435.021 203.089 434.642 202.801C434.267 202.509 433.795 202.364 433.227 202.364C432.682 202.364 432.223 202.502 431.852 202.778C431.481 203.051 431.201 203.434 431.011 203.926C430.822 204.415 430.727 204.985 430.727 205.636ZM442.71 210.182C441.892 210.182 441.188 209.989 440.597 209.602C440.006 209.216 439.551 208.684 439.233 208.006C438.915 207.328 438.756 206.553 438.756 205.682C438.756 204.795 438.919 204.013 439.244 203.335C439.574 202.653 440.032 202.121 440.619 201.739C441.21 201.352 441.9 201.159 442.688 201.159C443.301 201.159 443.854 201.273 444.347 201.5C444.839 201.727 445.242 202.045 445.557 202.455C445.871 202.864 446.066 203.341 446.142 203.886H444.801C444.699 203.489 444.472 203.136 444.119 202.83C443.771 202.519 443.301 202.364 442.71 202.364C442.188 202.364 441.729 202.5 441.335 202.773C440.945 203.042 440.64 203.422 440.42 203.915C440.205 204.403 440.097 204.977 440.097 205.636C440.097 206.311 440.203 206.898 440.415 207.398C440.631 207.898 440.934 208.286 441.324 208.562C441.718 208.839 442.18 208.977 442.71 208.977C443.059 208.977 443.375 208.917 443.659 208.795C443.943 208.674 444.184 208.5 444.381 208.273C444.578 208.045 444.718 207.773 444.801 207.455H446.142C446.066 207.97 445.879 208.434 445.58 208.847C445.284 209.256 444.892 209.581 444.403 209.824C443.919 210.062 443.354 210.182 442.71 210.182ZM452.216 197.818L448.466 211.75H447.239L450.989 197.818H452.216ZM457.351 210.182C456.533 210.182 455.828 209.989 455.237 209.602C454.646 209.216 454.192 208.684 453.874 208.006C453.555 207.328 453.396 206.553 453.396 205.682C453.396 204.795 453.559 204.013 453.885 203.335C454.214 202.653 454.673 202.121 455.26 201.739C455.851 201.352 456.54 201.159 457.328 201.159C457.942 201.159 458.495 201.273 458.987 201.5C459.48 201.727 459.883 202.045 460.197 202.455C460.512 202.864 460.707 203.341 460.783 203.886H459.442C459.339 203.489 459.112 203.136 458.76 202.83C458.411 202.519 457.942 202.364 457.351 202.364C456.828 202.364 456.37 202.5 455.976 202.773C455.586 203.042 455.281 203.422 455.061 203.915C454.845 204.403 454.737 204.977 454.737 205.636C454.737 206.311 454.843 206.898 455.055 207.398C455.271 207.898 455.574 208.286 455.964 208.562C456.358 208.839 456.821 208.977 457.351 208.977C457.699 208.977 458.016 208.917 458.3 208.795C458.584 208.674 458.824 208.5 459.021 208.273C459.218 208.045 459.358 207.773 459.442 207.455H460.783C460.707 207.97 460.519 208.434 460.22 208.847C459.925 209.256 459.533 209.581 459.044 209.824C458.559 210.062 457.995 210.182 457.351 210.182ZM466.038 210.182C465.311 210.182 464.669 209.998 464.112 209.631C463.555 209.259 463.12 208.737 462.805 208.062C462.491 207.384 462.334 206.583 462.334 205.659C462.334 204.742 462.491 203.947 462.805 203.273C463.12 202.598 463.557 202.078 464.118 201.71C464.679 201.343 465.326 201.159 466.061 201.159C466.629 201.159 467.078 201.254 467.408 201.443C467.741 201.629 467.995 201.841 468.169 202.08C468.347 202.314 468.485 202.508 468.584 202.659H468.697V198.364H470.038V210H468.743V208.659H468.584C468.485 208.818 468.345 209.019 468.163 209.261C467.982 209.5 467.722 209.714 467.385 209.903C467.048 210.089 466.599 210.182 466.038 210.182ZM466.22 208.977C466.758 208.977 467.213 208.837 467.584 208.557C467.955 208.273 468.237 207.881 468.43 207.381C468.624 206.877 468.72 206.295 468.72 205.636C468.72 204.985 468.625 204.415 468.436 203.926C468.247 203.434 467.966 203.051 467.595 202.778C467.224 202.502 466.766 202.364 466.22 202.364C465.652 202.364 465.179 202.509 464.8 202.801C464.425 203.089 464.143 203.481 463.953 203.977C463.768 204.47 463.675 205.023 463.675 205.636C463.675 206.258 463.769 206.822 463.959 207.33C464.152 207.833 464.436 208.235 464.811 208.534C465.19 208.83 465.66 208.977 466.22 208.977ZM477.726 203.114V201.886H484.726V203.114H477.726ZM477.726 206.477V205.25H484.726V206.477H477.726ZM495.841 210.159C495.174 210.159 494.574 210.027 494.04 209.761C493.506 209.496 493.078 209.133 492.756 208.67C492.434 208.208 492.258 207.682 492.227 207.091H493.591C493.644 207.617 493.883 208.053 494.307 208.398C494.735 208.739 495.246 208.909 495.841 208.909C496.318 208.909 496.742 208.797 497.114 208.574C497.489 208.35 497.782 208.044 497.994 207.653C498.21 207.259 498.318 206.814 498.318 206.318C498.318 205.811 498.206 205.358 497.983 204.96C497.763 204.559 497.46 204.242 497.074 204.011C496.688 203.78 496.246 203.663 495.75 203.659C495.394 203.655 495.028 203.71 494.653 203.824C494.278 203.934 493.97 204.076 493.727 204.25L492.409 204.091L493.114 198.364H499.159V199.614H494.295L493.886 203.045H493.955C494.193 202.856 494.492 202.699 494.852 202.574C495.212 202.449 495.587 202.386 495.977 202.386C496.689 202.386 497.324 202.557 497.881 202.898C498.441 203.235 498.881 203.697 499.199 204.284C499.521 204.871 499.682 205.542 499.682 206.295C499.682 207.038 499.515 207.701 499.182 208.284C498.852 208.864 498.398 209.322 497.818 209.659C497.239 209.992 496.58 210.159 495.841 210.159ZM502.501 210.091C502.221 210.091 501.981 209.991 501.78 209.79C501.579 209.589 501.479 209.348 501.479 209.068C501.479 208.788 501.579 208.547 501.78 208.347C501.981 208.146 502.221 208.045 502.501 208.045C502.782 208.045 503.022 208.146 503.223 208.347C503.424 208.547 503.524 208.788 503.524 209.068C503.524 209.254 503.477 209.424 503.382 209.58C503.291 209.735 503.168 209.86 503.013 209.955C502.861 210.045 502.691 210.091 502.501 210.091ZM509.297 210.159C508.441 210.159 507.712 209.926 507.109 209.46C506.507 208.991 506.047 208.311 505.729 207.42C505.411 206.527 505.251 205.447 505.251 204.182C505.251 202.924 505.411 201.85 505.729 200.96C506.051 200.066 506.513 199.384 507.115 198.915C507.721 198.441 508.448 198.205 509.297 198.205C510.145 198.205 510.871 198.441 511.473 198.915C512.079 199.384 512.541 200.066 512.859 200.96C513.181 201.85 513.342 202.924 513.342 204.182C513.342 205.447 513.183 206.527 512.865 207.42C512.547 208.311 512.087 208.991 511.484 209.46C510.882 209.926 510.153 210.159 509.297 210.159ZM509.297 208.909C510.145 208.909 510.804 208.5 511.274 207.682C511.744 206.864 511.979 205.697 511.979 204.182C511.979 203.174 511.871 202.316 511.655 201.608C511.443 200.9 511.136 200.36 510.734 199.989C510.337 199.617 509.857 199.432 509.297 199.432C508.456 199.432 507.799 199.847 507.325 200.676C506.852 201.502 506.615 202.67 506.615 204.182C506.615 205.189 506.721 206.045 506.933 206.75C507.145 207.455 507.45 207.991 507.848 208.358C508.25 208.725 508.732 208.909 509.297 208.909Z" fill="black"/>
<path d="M432.773 253.182C431.955 253.182 431.25 252.989 430.659 252.602C430.068 252.216 429.614 251.684 429.295 251.006C428.977 250.328 428.818 249.553 428.818 248.682C428.818 247.795 428.981 247.013 429.307 246.335C429.636 245.653 430.095 245.121 430.682 244.739C431.273 244.352 431.962 244.159 432.75 244.159C433.364 244.159 433.917 244.273 434.409 244.5C434.902 244.727 435.305 245.045 435.619 245.455C435.934 245.864 436.129 246.341 436.205 246.886H434.864C434.761 246.489 434.534 246.136 434.182 245.83C433.833 245.519 433.364 245.364 432.773 245.364C432.25 245.364 431.792 245.5 431.398 245.773C431.008 246.042 430.703 246.422 430.483 246.915C430.267 247.403 430.159 247.977 430.159 248.636C430.159 249.311 430.265 249.898 430.477 250.398C430.693 250.898 430.996 251.286 431.386 251.562C431.78 251.839 432.242 251.977 432.773 251.977C433.121 251.977 433.438 251.917 433.722 251.795C434.006 251.674 434.246 251.5 434.443 251.273C434.64 251.045 434.78 250.773 434.864 250.455H436.205C436.129 250.97 435.941 251.434 435.642 251.847C435.347 252.256 434.955 252.581 434.466 252.824C433.981 253.062 433.417 253.182 432.773 253.182ZM441.46 253.182C440.733 253.182 440.091 252.998 439.534 252.631C438.977 252.259 438.542 251.737 438.227 251.062C437.913 250.384 437.756 249.583 437.756 248.659C437.756 247.742 437.913 246.947 438.227 246.273C438.542 245.598 438.979 245.078 439.54 244.71C440.1 244.343 440.748 244.159 441.483 244.159C442.051 244.159 442.5 244.254 442.83 244.443C443.163 244.629 443.417 244.841 443.591 245.08C443.769 245.314 443.907 245.508 444.006 245.659H444.119V241.364H445.46V253H444.165V251.659H444.006C443.907 251.818 443.767 252.019 443.585 252.261C443.403 252.5 443.144 252.714 442.807 252.903C442.47 253.089 442.021 253.182 441.46 253.182ZM441.642 251.977C442.18 251.977 442.634 251.837 443.006 251.557C443.377 251.273 443.659 250.881 443.852 250.381C444.045 249.877 444.142 249.295 444.142 248.636C444.142 247.985 444.047 247.415 443.858 246.926C443.669 246.434 443.388 246.051 443.017 245.778C442.646 245.502 442.188 245.364 441.642 245.364C441.074 245.364 440.6 245.509 440.222 245.801C439.847 246.089 439.564 246.481 439.375 246.977C439.189 247.47 439.097 248.023 439.097 248.636C439.097 249.258 439.191 249.822 439.381 250.33C439.574 250.833 439.858 251.235 440.233 251.534C440.612 251.83 441.081 251.977 441.642 251.977ZM452.216 240.818L448.466 254.75H447.239L450.989 240.818H452.216ZM453.987 253V241.364H455.328V245.659H455.442C455.54 245.508 455.677 245.314 455.851 245.08C456.029 244.841 456.283 244.629 456.612 244.443C456.946 244.254 457.396 244.159 457.964 244.159C458.699 244.159 459.347 244.343 459.908 244.71C460.468 245.078 460.906 245.598 461.22 246.273C461.535 246.947 461.692 247.742 461.692 248.659C461.692 249.583 461.535 250.384 461.22 251.062C460.906 251.737 460.47 252.259 459.913 252.631C459.357 252.998 458.714 253.182 457.987 253.182C457.427 253.182 456.978 253.089 456.641 252.903C456.304 252.714 456.044 252.5 455.862 252.261C455.68 252.019 455.54 251.818 455.442 251.659H455.283V253H453.987ZM455.305 248.636C455.305 249.295 455.402 249.877 455.595 250.381C455.788 250.881 456.071 251.273 456.442 251.557C456.813 251.837 457.268 251.977 457.805 251.977C458.366 251.977 458.834 251.83 459.209 251.534C459.588 251.235 459.872 250.833 460.061 250.33C460.254 249.822 460.351 249.258 460.351 248.636C460.351 248.023 460.256 247.47 460.067 246.977C459.881 246.481 459.599 246.089 459.22 245.801C458.845 245.509 458.374 245.364 457.805 245.364C457.26 245.364 456.802 245.502 456.43 245.778C456.059 246.051 455.779 246.434 455.589 246.926C455.4 247.415 455.305 247.985 455.305 248.636ZM467.288 253.182C466.47 253.182 465.766 252.989 465.175 252.602C464.584 252.216 464.129 251.684 463.811 251.006C463.493 250.328 463.334 249.553 463.334 248.682C463.334 247.795 463.497 247.013 463.822 246.335C464.152 245.653 464.61 245.121 465.197 244.739C465.788 244.352 466.478 244.159 467.266 244.159C467.879 244.159 468.432 244.273 468.925 244.5C469.417 244.727 469.821 245.045 470.135 245.455C470.449 245.864 470.644 246.341 470.72 246.886H469.379C469.277 246.489 469.05 246.136 468.697 245.83C468.349 245.519 467.879 245.364 467.288 245.364C466.766 245.364 466.307 245.5 465.913 245.773C465.523 246.042 465.218 246.422 464.999 246.915C464.783 247.403 464.675 247.977 464.675 248.636C464.675 249.311 464.781 249.898 464.993 250.398C465.209 250.898 465.512 251.286 465.902 251.562C466.296 251.839 466.758 251.977 467.288 251.977C467.637 251.977 467.953 251.917 468.237 251.795C468.521 251.674 468.762 251.5 468.959 251.273C469.156 251.045 469.296 250.773 469.379 250.455H470.72C470.644 250.97 470.457 251.434 470.158 251.847C469.862 252.256 469.47 252.581 468.982 252.824C468.497 253.062 467.932 253.182 467.288 253.182ZM477.726 246.114V244.886H484.726V246.114H477.726ZM477.726 249.477V248.25H484.726V249.477H477.726ZM496 253.159C495.144 253.159 494.415 252.926 493.812 252.46C493.21 251.991 492.75 251.311 492.432 250.42C492.114 249.527 491.955 248.447 491.955 247.182C491.955 245.924 492.114 244.85 492.432 243.96C492.754 243.066 493.216 242.384 493.818 241.915C494.424 241.441 495.152 241.205 496 241.205C496.848 241.205 497.574 241.441 498.176 241.915C498.782 242.384 499.244 243.066 499.562 243.96C499.884 244.85 500.045 245.924 500.045 247.182C500.045 248.447 499.886 249.527 499.568 250.42C499.25 251.311 498.79 251.991 498.188 252.46C497.585 252.926 496.856 253.159 496 253.159ZM496 251.909C496.848 251.909 497.508 251.5 497.977 250.682C498.447 249.864 498.682 248.697 498.682 247.182C498.682 246.174 498.574 245.316 498.358 244.608C498.146 243.9 497.839 243.36 497.438 242.989C497.04 242.617 496.561 242.432 496 242.432C495.159 242.432 494.502 242.847 494.028 243.676C493.555 244.502 493.318 245.67 493.318 247.182C493.318 248.189 493.424 249.045 493.636 249.75C493.848 250.455 494.153 250.991 494.551 251.358C494.953 251.725 495.436 251.909 496 251.909ZM502.798 253.091C502.518 253.091 502.277 252.991 502.077 252.79C501.876 252.589 501.776 252.348 501.776 252.068C501.776 251.788 501.876 251.547 502.077 251.347C502.277 251.146 502.518 251.045 502.798 251.045C503.079 251.045 503.319 251.146 503.52 251.347C503.721 251.547 503.821 251.788 503.821 252.068C503.821 252.254 503.774 252.424 503.679 252.58C503.588 252.735 503.465 252.86 503.31 252.955C503.158 253.045 502.988 253.091 502.798 253.091ZM506.205 253V251.977L510.045 247.773C510.496 247.28 510.867 246.852 511.159 246.489C511.451 246.121 511.667 245.777 511.807 245.455C511.951 245.129 512.023 244.788 512.023 244.432C512.023 244.023 511.924 243.669 511.727 243.369C511.534 243.07 511.269 242.839 510.932 242.676C510.595 242.513 510.216 242.432 509.795 242.432C509.348 242.432 508.958 242.525 508.625 242.71C508.295 242.892 508.04 243.148 507.858 243.477C507.68 243.807 507.591 244.193 507.591 244.636H506.25C506.25 243.955 506.407 243.356 506.722 242.841C507.036 242.326 507.464 241.924 508.006 241.636C508.551 241.348 509.163 241.205 509.841 241.205C510.523 241.205 511.127 241.348 511.653 241.636C512.18 241.924 512.593 242.312 512.892 242.801C513.191 243.29 513.341 243.833 513.341 244.432C513.341 244.86 513.263 245.278 513.108 245.688C512.956 246.093 512.691 246.545 512.312 247.045C511.938 247.542 511.417 248.148 510.75 248.864L508.136 251.659V251.75H513.545V253H506.205Z" fill="black"/>
</svg>
